inDegrees=yes
name=ik_MT_012005D6_009-001_orientations
DataType=double
version=3
OpenSimVersion=4.4-2022-07-23-0e9fedc
endheader
time	pelvis_tilt	pelvis_list	pelvis_rotation	pelvis_tx	pelvis_ty	pelvis_tz	hip_flexion_r	hip_adduction_r	hip_rotation_r	knee_angle_r	knee_angle_r_beta	ankle_angle_r	subtalar_angle_r	mtp_angle_r	hip_flexion_l	hip_adduction_l	hip_rotation_l	knee_angle_l	knee_angle_l_beta	ankle_angle_l	subtalar_angle_l	mtp_angle_l	lumbar_extension	lumbar_bending	lumbar_rotation	arm_flex_r	arm_add_r	arm_rot_r	elbow_flex_r	pro_sup_r	wrist_flex_r	wrist_dev_r	arm_flex_l	arm_add_l	arm_rot_l	elbow_flex_l	pro_sup_l	wrist_flex_l	wrist_dev_l
12.15999999999979	0	0	0	0	0.93	0	-3.564509296833602	4.632547522230366	-23.6832357122424	11.32505475595271	0.1976594934600176	7.970870039714423	0	0	24.14270082110176	5.579488031341753	22.65711005533487	0.2731222702602703	0.004766882876563507	4.525011901557667	0	0	0	0	0	0	0	0	0	0	0	0	0	0	0	0	0	0	0
12.16999999999978	0	0	0	0	0.93	0	-3.952712878560198	4.592689673093149	-23.88215100296715	11.71545640672491	0.2044732876712136	8.143539657072123	0	0	24.61556339722634	5.817189525090576	23.33991428852432	0.1175535563726677	0.002051696606131814	6.363393021655582	0	0	0	0	0	0	0	0	0	0	0	0	0	0	0	0	0	0	0
12.17999999999978	0	0	0	0	0.93	0	-4.284249400031518	4.516115156560219	-24.11198204513004	12.24615950295673	0.2137358040509872	8.373091485653855	0	0	24.85130368220511	6.181595260195483	24.05803874245918	0.0916747191727587	0.001600025690405812	8.162860083409633	0	0	0	0	0	0	0	0	0	0	0	0	0	0	0	0	0	0	0
12.18999999999978	0	0	0	0	0.93	0	-4.606630960377809	4.421560170646225	-24.34158653527835	12.8756980687418	0.2247233247922195	8.686805600819319	0	0	24.73488585378422	6.656484533245312	24.60926546018181	0.08763681117339618	0.001529550900924319	9.521793201270247	0	0	0	0	0	0	0	0	0	0	0	0	0	0	0	0	0	0	0
12.19999999999978	0	0	0	0	0.93	0	-4.888298018719773	4.295019904664604	-24.57131080474829	13.54227555613796	0.2363572966669536	8.871285491369894	0	0	24.48503078523077	7.20676144892595	24.86077600901114	0.08797155007475389	0.001535393196887519	9.983562669381238	0	0	0	0	0	0	0	0	0	0	0	0	0	0	0	0	0	0	0
12.20999999999978	0	0	0	0	0.93	0	-5.100268405740549	4.114607911868652	-24.83954183960827	14.4666838206571	0.2524912645154592	9.253403247244417	0	0	24.20138014034079	7.680280483654279	25.07375871724443	0.09530506398207399	0.001663387160311049	9.775458213062032	0	0	0	0	0	0	0	0	0	0	0	0	0	0	0	0	0	0	0
12.21999999999978	0	0	0	0	0.93	0	-5.321398174341941	3.936571028079165	-25.1187732277799	15.32916477482203	0.2675443969013796	9.38686725674585	0	0	23.78947180503818	7.885163802178591	25.5023587801432	0.1306660248291041	0.002280552353760528	9.581402388894784	0	0	0	0	0	0	0	0	0	0	0	0	0	0	0	0	0	0	0
12.22999999999978	0	0	0	0	0.93	0	-5.568566877767314	3.772254439364505	-25.42397617360948	16.17032500490053	0.2822254124530824	9.435615585616102	0	0	23.32852899777256	7.746210348605902	26.146339680781	0.3123001255371979	0.005450665445015729	8.323171639545835	0	0	0	0	0	0	0	0	0	0	0	0	0	0	0	0	0	0	0
12.23999999999978	0	0	0	0	0.93	0	-5.794513097122095	3.56860170627021	-25.75468230169806	17.14105271699091	0.2991678071694112	9.516552992199907	0	0	23.23225596887412	7.855357671076947	26.66716109505998	1.58249978171713	0.02761983160305548	8.224396804889077	0	0	0	0	0	0	0	0	0	0	0	0	0	0	0	0	0	0	0
12.24999999999978	0	0	0	0	0.93	0	-6.06113173701751	3.370565387561139	-26.08064985873851	18.06237202027806	0.3152478624739521	9.414086471260065	0	0	23.29188080475491	8.289686652749863	26.9940445898359	3.222582835133605	0.056244680891335	7.851175590424683	0	0	0	0	0	0	0	0	0	0	0	0	0	0	0	0	0	0	0
12.25999999999978	0	0	0	0	0.93	0	-6.350669478517301	3.191679727234689	-26.42192830274771	18.93784705237105	0.3305277843029779	9.145883190621278	0	0	23.31415473392459	8.546539577946687	27.23947924519534	3.944898935316727	0.06885147507969569	6.140140606474845	0	0	0	0	0	0	0	0	0	0	0	0	0	0	0	0	0	0	0
12.26999999999978	0	0	0	0	0.93	0	-6.651644348124131	3.039829559893832	-26.77472614225413	19.83185929140289	0.34613124142721	8.710144978800599	0	0	23.19787678991468	8.730760881469909	27.23445746155068	4.151760628413173	0.07246189272047869	3.807842433311121	0	0	0	0	0	0	0	0	0	0	0	0	0	0	0	0	0	0	0
12.27999999999978	0	0	0	0	0.93	0	-6.79834670174314	2.837651326458104	-27.19420546139287	20.95961890722777	0.3658143598943806	8.131993901971963	0	0	22.78443277364855	8.823571223122171	27.15209926850277	4.523630872486129	0.07895225286974672	2.009480341410106	0	0	0	0	0	0	0	0	0	0	0	0	0	0	0	0	0	0	0
12.28999999999978	0	0	0	0	0.93	0	-6.967880538767876	2.62349917620006	-27.66332838350787	22.09470908425621	0.385625420790572	7.288981451068937	0	0	22.27226971719086	8.837982965077581	27.1627600430745	5.43674336699647	0.09488907234005083	1.006808661976687	0	0	0	0	0	0	0	0	0	0	0	0	0	0	0	0	0	0	0
12.29999999999978	0	0	0	0	0.93	0	-7.063548969826829	2.327055637596781	-28.19318725317407	23.36508814669508	0.4077977181785289	6.109199808758344	0	0	21.60549881852589	8.861861434012305	27.26954742424527	6.220775053517983	0.1085730067098153	-0.03669865620384477	0	0	0	0	0	0	0	0	0	0	0	0	0	0	0	0	0	0	0
12.30999999999978	0	0	0	0	0.93	0	-7.044451124897397	1.889905108699592	-28.83010154545214	24.84375051519145	0.4336052450341282	4.536981812563747	0	0	20.93954832881551	8.8225870140755	27.41472367300342	6.750113757117731	0.1178117099458692	-1.189890175026868	0	0	0	0	0	0	0	0	0	0	0	0	0	0	0	0	0	0	0
12.31999999999978	0	0	0	0	0.93	0	-6.894044504867013	1.243665367443207	-29.56941967148844	26.58422513267387	0.4639822576565855	2.535391058495624	0	0	20.57451582244377	8.860199386635637	27.45831798973526	7.617381092853866	0.1329483804494639	-1.943622451206773	0	0	0	0	0	0	0	0	0	0	0	0	0	0	0	0	0	0	0
12.32999999999978	0	0	0	0	0.93	0	-6.597803303531488	0.4244597212356187	-30.36377055050112	28.55052221558645	0.49830061582577	0.09632318787599209	0	0	20.75441590008598	9.101149637369584	27.34776885776375	9.283523452765603	0.162028050436872	-2.229983543217668	0	0	0	0	0	0	0	0	0	0	0	0	0	0	0	0	0	0	0
12.33999999999978	0	0	0	0	0.93	0	-6.108546426899576	-0.4970207374614766	-31.24495762519135	30.79278808169671	0.5374355378944762	-2.803452784953021	0	0	21.23209563521329	9.455953592739052	27.29782356107009	11.29026413516289	0.1970522825784225	-2.138658226951146	0	0	0	0	0	0	0	0	0	0	0	0	0	0	0	0	0	0	0
12.34999999999978	0	0	0	0	0.93	0	-5.510968132996174	-1.483896032231047	-32.16252736001178	33.1848368095711	0.5791846640640261	-6.0589180437212	0	0	21.68632955102752	9.734840690354179	27.48501061024117	13.13182552912014	0.229193592280593	-1.732658609773972	0	0	0	0	0	0	0	0	0	0	0	0	0	0	0	0	0	0	0
12.35999999999978	0	0	0	0	0.93	0	-4.812195526909567	-2.518867144899485	-33.10521367866278	35.72093393967683	0.6234479091347501	-9.541209789950127	0	0	21.78675447896837	10.03994311181441	27.79287347862036	14.58249169978577	0.2545124933060062	-1.255841459210723	0	0	0	0	0	0	0	0	0	0	0	0	0	0	0	0	0	0	0
12.36999999999978	0	0	0	0	0.93	0	-3.98312924207805	-3.605110476380162	-34.01738058076465	38.42378186118491	0.6706215045457514	-13.10302012420046	0	0	21.56226087237614	10.25209794422939	28.10885045946896	15.64093597448928	0.2729858308484657	-0.6100442545690654	0	0	0	0	0	0	0	0	0	0	0	0	0	0	0	0	0	0	0
12.37999999999978	0	0	0	0	0.93	0	-3.018680494331769	-4.779991519965872	-34.85827408213267	41.33009618414491	0.7213462585792733	-16.75639290463776	0	0	21.13779502446045	10.39105706153587	28.34754731396283	16.39356893967333	0.2861217541499753	0.1230681720497647	0	0	0	0	0	0	0	0	0	0	0	0	0	0	0	0	0	0	0
